STARTFONT 2.1
FONT -AK Design-Seymour-Bold-R-Normal-Sans-16-160-100-100-M-100-CDC6000-1
SIZE 16 100 100
FONTBOUNDINGBOX 16 16 -2 -2
STARTPROPERTIES 25
FONTNAME_REGISTRY ""
FOUNDRY "AK Design"
FAMILY_NAME "Seymour"
WEIGHT_NAME "Bold"
SLANT "R"
SETWIDTH_NAME "Normal"
ADD_STYLE_NAME "Sans"
PIXEL_SIZE 16
POINT_SIZE 160
RESOLUTION_X 100
RESOLUTION_Y 100
SPACING "M"
AVERAGE_WIDTH 160
CHARSET_REGISTRY "CDC6000"
CHARSET_ENCODING "1"
COPYRIGHT "Copyright Paul Koning, 2003."
FACE_NAME "Seymour"
X_HEIGHT 14
CAP_HEIGHT 14
WEIGHT 15
RESOLUTION 100
QUAD_WIDTH 16
FONT_ASCENT 15
FONT_DESCENT 3
_XMBDFED_INFO "Edited with xmbdfed 4.5."
ENDPROPERTIES
CHARS 48
STARTCHAR char0
ENCODING 0
SWIDTH 720 0
DWIDTH 16 0
BBX 16 16 0 0
BITMAP
0000
0000
0000
0000
0000
0000
0000
0000
0000
0000
0000
0000
0000
0000
0000
0000
ENDCHAR
STARTCHAR char1
ENCODING 1
SWIDTH 720 0
DWIDTH 16 0
BBX 16 16 0 0
BITMAP
0000
0700
0700
0D80
0D80
18C0
18C0
18C0
3FE0
3060
6030
6030
6030
C010
C010
0000
ENDCHAR
STARTCHAR char2
ENCODING 2
SWIDTH 720 0
DWIDTH 16 0
BBX 16 16 0 0
BITMAP
0000
FFE0
C0F0
C030
C030
C0F0
FFC0
C0E0
C070
C030
C030
C030
C070
C1E0
FF80
0000
ENDCHAR
STARTCHAR char3
ENCODING 3
SWIDTH 720 0
DWIDTH 16 0
BBX 16 16 0 0
BITMAP
0000
1F80
39C0
70E0
6030
C010
C000
C000
C000
C000
6000
3000
1830
0C70
07E0
0000
ENDCHAR
STARTCHAR char4
ENCODING 4
SWIDTH 720 0
DWIDTH 16 0
BBX 16 16 0 0
BITMAP
0000
FFE0
C070
C030
C030
C030
C030
C030
C030
C030
C030
C030
C0E0
C7C0
FF00
0000
ENDCHAR
STARTCHAR char5
ENCODING 5
SWIDTH 720 0
DWIDTH 16 0
BBX 16 16 0 0
BITMAP
0000
FFF0
C000
C000
C000
C000
FE00
C000
C000
C000
C000
C000
C000
C000
FFF0
0000
ENDCHAR
STARTCHAR char6
ENCODING 6
SWIDTH 720 0
DWIDTH 16 0
BBX 16 16 0 0
BITMAP
0000
FFF0
C000
C000
C000
C000
FE00
C000
C000
C000
C000
C000
C000
C000
C000
0000
ENDCHAR
STARTCHAR char7
ENCODING 7
SWIDTH 720 0
DWIDTH 16 0
BBX 16 16 0 0
BITMAP
0000
0F00
39C0
60E0
6030
C030
C000
C000
C180
C1C0
60F0
3030
1830
0E70
07E0
0000
ENDCHAR
STARTCHAR char8
ENCODING 8
SWIDTH 720 0
DWIDTH 16 0
BBX 16 16 0 0
BITMAP
0000
C030
C030
C030
C030
C030
C030
FFF0
C030
C030
C030
C030
C030
C030
C030
0000
ENDCHAR
STARTCHAR char9
ENCODING 9
SWIDTH 720 0
DWIDTH 16 0
BBX 16 16 0 0
BITMAP
0000
0600
0600
0600
0600
0600
0600
0600
0600
0600
0600
0600
0600
0600
0600
0000
ENDCHAR
STARTCHAR char10
ENCODING 10
SWIDTH 720 0
DWIDTH 16 0
BBX 16 16 0 0
BITMAP
0000
00C0
00C0
00C0
00C0
00C0
00C0
00C0
00C0
00C0
60C0
60C0
30C0
1980
0F00
0000
ENDCHAR
STARTCHAR char11
ENCODING 11
SWIDTH 720 0
DWIDTH 16 0
BBX 16 16 0 0
BITMAP
0000
C030
C0E0
C180
C300
C600
CC00
D800
F000
E000
F800
CE00
C380
C0E0
C030
0000
ENDCHAR
STARTCHAR char12
ENCODING 12
SWIDTH 720 0
DWIDTH 16 0
BBX 16 16 0 0
BITMAP
0000
C000
C000
C000
C000
C000
C000
C000
C000
C000
C000
C000
C000
C000
FFF0
0000
ENDCHAR
STARTCHAR char13
ENCODING 13
SWIDTH 720 0
DWIDTH 16 0
BBX 16 16 0 0
BITMAP
0000
C010
E030
F070
DCF0
C7B0
C330
C030
C030
C030
C030
C030
C030
C030
C030
0000
ENDCHAR
STARTCHAR char14
ENCODING 14
SWIDTH 720 0
DWIDTH 16 0
BBX 16 16 0 0
BITMAP
0000
E030
F030
D830
CC30
C630
C330
C1B0
C0F0
C070
C030
C030
C030
C030
C030
0000
ENDCHAR
STARTCHAR char15
ENCODING 15
SWIDTH 720 0
DWIDTH 16 0
BBX 16 16 0 0
BITMAP
0000
01E0
0770
0C30
1830
3030
6030
6030
C030
C030
C060
C060
60C0
3380
1E00
0000
ENDCHAR
STARTCHAR char16
ENCODING 16
SWIDTH 720 0
DWIDTH 16 0
BBX 16 16 0 0
BITMAP
0000
FFE0
C070
C030
C030
C030
C0F0
C7C0
FF00
C000
C000
C000
C000
C000
C000
0000
ENDCHAR
STARTCHAR char17
ENCODING 17
SWIDTH 720 0
DWIDTH 16 0
BBX 16 16 0 0
BITMAP
0000
01E0
0770
0C30
1830
3030
6030
6030
C030
C330
C1E0
C0E0
60E0
33B0
1E10
0000
ENDCHAR
STARTCHAR char18
ENCODING 18
SWIDTH 720 0
DWIDTH 16 0
BBX 16 16 0 0
BITMAP
0000
FFE0
C070
C030
C030
C030
C070
C1C0
FF80
C300
C180
C0C0
C060
C030
C010
0000
ENDCHAR
STARTCHAR char19
ENCODING 19
SWIDTH 720 0
DWIDTH 16 0
BBX 16 16 0 0
BITMAP
0000
0F80
3BE0
6070
C030
C000
C000
7800
3F00
07C0
00F0
0030
C030
F9F0
3FC0
0000
ENDCHAR
STARTCHAR char20
ENCODING 20
SWIDTH 720 0
DWIDTH 16 0
BBX 16 16 0 0
BITMAP
0000
FFF0
0300
0300
0300
0300
0300
0300
0300
0300
0300
0300
0300
0300
0300
0000
ENDCHAR
STARTCHAR char21
ENCODING 21
SWIDTH 720 0
DWIDTH 16 0
BBX 16 16 0 0
BITMAP
0000
C030
C030
C030
C030
C030
C030
C030
C030
6030
7030
3030
3870
1DE0
0FC0
0000
ENDCHAR
STARTCHAR char22
ENCODING 22
SWIDTH 720 0
DWIDTH 16 0
BBX 16 16 0 0
BITMAP
0000
C030
C030
6030
6030
3060
3060
3060
18C0
18C0
18C0
0D80
0D80
0700
0700
0000
ENDCHAR
STARTCHAR char23
ENCODING 23
SWIDTH 720 0
DWIDTH 16 0
BBX 16 16 0 0
BITMAP
0000
C030
C030
C030
C030
C030
C030
C030
C030
C330
C7B0
DCF0
F070
E030
C010
0000
ENDCHAR
STARTCHAR char24
ENCODING 24
SWIDTH 720 0
DWIDTH 16 0
BBX 16 16 0 0
BITMAP
0000
C010
6030
3060
18C0
0CC0
0D80
0700
0700
0D80
1980
18C0
3060
6030
C010
0000
ENDCHAR
STARTCHAR char25
ENCODING 25
SWIDTH 720 0
DWIDTH 16 0
BBX 16 16 0 0
BITMAP
0000
C010
6030
3030
1860
0CC0
0780
0300
0300
0300
0300
0300
0300
0300
0300
0000
ENDCHAR
STARTCHAR char26
ENCODING 26
SWIDTH 720 0
DWIDTH 16 0
BBX 16 16 0 0
BITMAP
0000
FFF0
0030
0030
0060
00C0
0180
0300
0600
0C00
1800
3000
6000
C000
FFF0
0000
ENDCHAR
STARTCHAR char27
ENCODING 27
SWIDTH 720 0
DWIDTH 16 0
BBX 16 16 0 0
BITMAP
0000
0FC0
1CE0
3070
6030
C030
C030
C030
C030
C030
C030
C030
E030
79E0
3F80
0000
ENDCHAR
STARTCHAR char28
ENCODING 28
SWIDTH 720 0
DWIDTH 16 0
BBX 16 16 0 0
BITMAP
0000
0700
0F00
1B00
3300
0300
0300
0300
0300
0300
0300
0300
0300
0300
0300
0000
ENDCHAR
STARTCHAR char29
ENCODING 29
SWIDTH 720 0
DWIDTH 16 0
BBX 16 16 0 0
BITMAP
0000
0F80
38C0
60C0
C060
0060
0060
00C0
0180
0300
0600
1C00
7000
C000
FFE0
0000
ENDCHAR
STARTCHAR char30
ENCODING 30
SWIDTH 720 0
DWIDTH 16 0
BBX 16 16 0 0
BITMAP
0000
1FC0
78E0
E030
0030
0030
0060
07C0
01C0
0060
0030
0030
C070
71E0
3F80
0000
ENDCHAR
STARTCHAR char31
ENCODING 31
SWIDTH 720 0
DWIDTH 16 0
BBX 16 16 0 0
BITMAP
0000
0300
0300
0700
0F00
0F00
1B00
3300
3300
6300
C300
FFF0
0300
0300
0300
0000
ENDCHAR
STARTCHAR char32
ENCODING 32
SWIDTH 720 0
DWIDTH 16 0
BBX 16 16 0 0
BITMAP
0000
FFF0
C000
C000
C000
C000
FF80
01E0
0070
0030
0030
E030
7030
3CE0
0FC0
0000
ENDCHAR
STARTCHAR char33
ENCODING 33
SWIDTH 720 0
DWIDTH 16 0
BBX 16 16 0 0
BITMAP
0000
0FE0
3C70
3000
7000
67C0
CEE0
F870
E030
C010
C030
C030
E070
79E0
3F80
0000
ENDCHAR
STARTCHAR char34
ENCODING 34
SWIDTH 720 0
DWIDTH 16 0
BBX 16 16 0 0
BITMAP
0000
7FE0
0060
00C0
0180
0300
0300
0600
0600
0C00
0C00
1800
1800
3000
3000
0000
ENDCHAR
STARTCHAR char35
ENCODING 35
SWIDTH 720 0
DWIDTH 16 0
BBX 16 16 0 0
BITMAP
0000
07C0
1CE0
3070
6030
7030
3C60
1FE0
3070
6030
C030
C030
E070
79E0
3F80
0000
ENDCHAR
STARTCHAR char36
ENCODING 36
SWIDTH 720 0
DWIDTH 16 0
BBX 16 16 0 0
BITMAP
0000
0FE0
3CF0
7030
E030
C030
C030
6030
71F0
3F90
1E30
0070
E0E0
73C0
3F00
0000
ENDCHAR
STARTCHAR char37
ENCODING 37
SWIDTH 720 0
DWIDTH 16 0
BBX 16 16 0 0
BITMAP
0000
0000
0000
0000
0600
0600
0600
0600
0600
FFF0
0600
0600
0600
0600
0600
0000
ENDCHAR
STARTCHAR char38
ENCODING 38
SWIDTH 720 0
DWIDTH 16 0
BBX 16 16 0 0
BITMAP
0000
0000
0000
0000
0000
0000
0000
0000
FFF0
FFF0
0000
0000
0000
0000
0000
0000
ENDCHAR
STARTCHAR char39
ENCODING 39
SWIDTH 720 0
DWIDTH 16 0
BBX 16 16 0 0
BITMAP
0000
0000
0000
0000
0000
6060
30C0
1980
0F00
FFF0
0F00
1980
30C0
6060
0000
0000
ENDCHAR
STARTCHAR char40
ENCODING 40
SWIDTH 720 0
DWIDTH 16 0
BBX 16 16 0 0
BITMAP
0000
0010
0030
0060
00C0
00C0
0180
0300
0600
0C00
1800
1800
3000
6000
C000
0000
ENDCHAR
STARTCHAR char41
ENCODING 41
SWIDTH 720 0
DWIDTH 16 0
BBX 16 16 0 0
BITMAP
0000
0380
0600
0C00
0C00
1800
1800
1800
1800
1800
1800
0C00
0C00
0600
0380
0000
ENDCHAR
STARTCHAR char42
ENCODING 42
SWIDTH 720 0
DWIDTH 16 0
BBX 16 16 0 0
BITMAP
0000
1C00
0600
0300
0300
0180
0180
0180
0180
0180
0180
0300
0300
0600
1C00
0000
ENDCHAR
STARTCHAR char43
ENCODING 43
SWIDTH 720 0
DWIDTH 16 0
BBX 16 16 0 0
BITMAP
0000
0000
0000
0000
0000
0000
0000
0000
0000
0000
0000
0000
0000
0000
0000
0000
ENDCHAR
STARTCHAR char44
ENCODING 44
SWIDTH 720 0
DWIDTH 16 0
BBX 16 16 0 0
BITMAP
0000
0000
0000
0000
0000
0000
FFF0
FFF0
0000
0000
FFF0
FFF0
0000
0000
0000
0000
ENDCHAR
STARTCHAR char45
ENCODING 45
SWIDTH 720 0
DWIDTH 16 0
BBX 16 16 0 0
BITMAP
0000
0000
0000
0000
0000
0000
0000
0000
0000
0000
0000
0000
0000
0000
0000
0000
ENDCHAR
STARTCHAR char46
ENCODING 46
SWIDTH 720 0
DWIDTH 16 0
BBX 16 16 0 0
BITMAP
0000
0000
0000
0000
0000
0000
0000
0000
0180
0380
0780
0700
0600
0000
0000
0000
ENDCHAR
STARTCHAR char47
ENCODING 47
SWIDTH 720 0
DWIDTH 16 0
BBX 16 16 0 0
BITMAP
0000
0000
0000
0000
0000
0000
0000
0000
0000
0E00
0E00
0E00
0000
0000
0000
0000
ENDCHAR
ENDFONT
